<svg width="20" height="20" viewBox="0 0 20 20" fill="none" xmlns="http://www.w3.org/2000/svg">
<path d="M2.5 17.5C2.00272 17.5 1.52581 17.3025 1.17417 16.9508C0.822544 16.5992 0.625 16.1223 0.625 15.625V4.375C0.625 3.87772 0.822544 3.40081 1.17417 3.04918C1.52581 2.69754 2.00272 2.5 2.5 2.5H6.875C6.96682 2.49985 7.05754 2.51994 7.14072 2.55882C7.2239 2.59771 7.29749 2.65445 7.35625 2.725L9.25 5H16.875C17.0408 5 17.1997 5.06585 17.3169 5.18306C17.4342 5.30027 17.5 5.45924 17.5 5.625C17.5 5.79076 17.4342 5.94973 17.3169 6.06694C17.1997 6.18415 17.0408 6.25 16.875 6.25H8.95625C8.86549 6.24924 8.77598 6.22872 8.69395 6.18986C8.61192 6.151 8.53934 6.09475 8.48125 6.025L6.58125 3.75H2.5C2.33424 3.75 2.17527 3.81585 2.05806 3.93306C1.94085 4.05027 1.875 4.20924 1.875 4.375V15.625C1.875 15.7908 1.94085 15.9497 2.05806 16.0669C2.17527 16.1842 2.33424 16.25 2.5 16.25C2.66576 16.25 2.82473 16.3158 2.94194 16.4331C3.05915 16.5503 3.125 16.7092 3.125 16.875C3.125 17.0408 3.05915 17.1997 2.94194 17.3169C2.82473 17.4342 2.66576 17.5 2.5 17.5Z" fill="#101820"/>
<path d="M15.8625 17.5H2.49999C2.40561 17.5021 2.31197 17.4828 2.22611 17.4435C2.14025 17.4043 2.0644 17.3461 2.00426 17.2733C1.94411 17.2005 1.90124 17.1151 1.87885 17.0233C1.85646 16.9316 1.85514 16.836 1.87499 16.7437L3.74999 7.99372C3.78049 7.85158 3.85958 7.72451 3.97365 7.63439C4.08773 7.54427 4.22965 7.49674 4.37499 7.49997H18.75C18.8444 7.49786 18.938 7.51716 19.0239 7.55642C19.1097 7.59569 19.1856 7.65389 19.2457 7.72666C19.3059 7.79944 19.3487 7.88489 19.3711 7.97661C19.3935 8.06833 19.3948 8.16392 19.375 8.25622L17.7 16.0187C17.6098 16.4388 17.378 16.8151 17.0435 17.0847C16.7091 17.3544 16.2921 17.501 15.8625 17.5ZM3.27499 16.25H15.8625C16.0078 16.2532 16.1498 16.2057 16.2638 16.1156C16.3779 16.0254 16.457 15.8984 16.4875 15.7562L17.975 8.74997H4.84999L3.27499 16.25Z" fill="#101820"/>
</svg>
