<svg width="16" height="17" viewBox="0 0 16 17" fill="none" xmlns="http://www.w3.org/2000/svg">
<g id="Layer 2">
<path id="Vector" d="M8.00006 6.03844C7.75663 6.03844 7.51868 5.96626 7.31628 5.83102C7.11388 5.69578 6.95613 5.50356 6.86297 5.27867C6.76982 5.05378 6.74545 4.80631 6.79294 4.56756C6.84043 4.32882 6.95765 4.10952 7.12977 3.93739C7.3019 3.76526 7.5212 3.64804 7.75995 3.60055C7.99869 3.55306 8.24616 3.57744 8.47105 3.67059C8.69595 3.76375 8.88817 3.9215 9.0234 4.1239C9.15864 4.32629 9.23083 4.56425 9.23083 4.80767C9.23083 5.13409 9.10116 5.44714 8.87034 5.67796C8.63953 5.90877 8.32648 6.03844 8.00006 6.03844Z" fill="black"/>
<path id="Vector_2" d="M8 16.5C6.41775 16.5 4.87103 16.0308 3.55544 15.1518C2.23985 14.2727 1.21447 13.0233 0.608967 11.5615C0.00346628 10.0997 -0.15496 8.49113 0.153721 6.93928C0.462403 5.38743 1.22433 3.96197 2.34315 2.84315C3.46197 1.72433 4.88743 0.962403 6.43928 0.653721C7.99113 0.34504 9.59966 0.503466 11.0615 1.10897C12.5233 1.71447 13.7727 2.73985 14.6518 4.05544C15.5308 5.37103 16 6.91775 16 8.5C16 10.6217 15.1571 12.6566 13.6569 14.1569C12.1566 15.6571 10.1217 16.5 8 16.5ZM8 1.73077C6.66117 1.73077 5.35241 2.12778 4.23922 2.87159C3.12603 3.61541 2.2584 4.67262 1.74605 5.90953C1.2337 7.14644 1.09965 8.50751 1.36084 9.82061C1.62203 11.1337 2.26674 12.3399 3.21343 13.2866C4.16013 14.2333 5.36629 14.878 6.67939 15.1392C7.99249 15.4004 9.35356 15.2663 10.5905 14.754C11.8274 14.2416 12.8846 13.374 13.6284 12.2608C14.3722 11.1476 14.7692 9.83883 14.7692 8.5C14.7692 6.70469 14.056 4.98291 12.7866 3.71343C11.5171 2.44396 9.79531 1.73077 8 1.73077Z" fill="black"/>
<path id="Vector_3" d="M8.00006 13.4231C7.67364 13.4231 7.36059 13.2934 7.12977 13.0626C6.89896 12.8318 6.76929 12.5187 6.76929 12.1923V8.49999C6.76929 8.17357 6.89896 7.86052 7.12977 7.62971C7.36059 7.3989 7.67364 7.26923 8.00006 7.26923C8.32648 7.26923 8.63953 7.3989 8.87034 7.62971C9.10115 7.86052 9.23082 8.17357 9.23082 8.49999V12.1923C9.23082 12.5187 9.10115 12.8318 8.87034 13.0626C8.63953 13.2934 8.32648 13.4231 8.00006 13.4231Z" fill="black"/>
</g>
</svg>
