<?xml version="1.0" ?><svg viewBox="0 0 22.552 22.575" xmlns="http://www.w3.org/2000/svg"><g data-name="Layer 2" id="Layer_2"><g data-name="Layer 1" id="Layer_1-2"><path d="M16.783,8.254H15.734V.342A.342.342,0,0,0,15.392,0H4.9a.342.342,0,0,0-.242.1L.1,4.661A.342.342,0,0,0,0,4.9v17.33a.342.342,0,0,0,.342.342h15.05a.342.342,0,0,0,.342-.342V19.838C24.132,20.562,25.107,8.777,16.783,8.254ZM4.561,1.168V4.561H1.168ZM16.783,19.155h-5.04a.342.342,0,1,0,0,.683H15.05v2.053H.684V5.245H4.9A.342.342,0,0,0,5.245,4.9V.684H15.05v7.57h-2.8v-1.8a.344.344,0,0,0-.584-.242L7.854,10.031a.342.342,0,0,0,0,.484l3.815,3.815a.344.344,0,0,0,.583-.242v-1.8h2.8V15.8H8.1a.342.342,0,0,0,0,.684h8.688a2.439,2.439,0,0,0,0-4.877H11.91a.342.342,0,0,0-.342.342v1.313l-2.989-2.99,2.989-2.989V8.6a.342.342,0,0,0,.342.342h4.873A5.109,5.109,0,0,1,16.783,19.155ZM15.734,15.8V12.292h1.049a1.755,1.755,0,0,1,0,3.509Z" data-name="document restore" id="document_restore"/></g></g></svg>