<svg width="17" height="20" viewBox="0 0 17 20" fill="none" xmlns="http://www.w3.org/2000/svg">
<path d="M5.01044 6.22131H6.26305V16.2422H5.01044V6.22131Z" fill="black"/>
<path d="M7.51569 6.22131H8.7683V16.2422H7.51569V6.22131Z" fill="black"/>
<path d="M10.0209 6.22131H11.2735V16.2422H10.0209V6.22131Z" fill="black"/>
<path d="M0 2.4635H16.2839V3.71611H0V2.4635Z" fill="black"/>
<path d="M11.2317 3.08977H10.0626V1.83716C10.0626 1.46138 9.77035 1.1691 9.39456 1.1691H6.88934C6.51356 1.1691 6.22128 1.46138 6.22128 1.83716V3.08977H5.05219V1.83716C5.05219 0.835071 5.88726 0 6.88934 0H9.39456C10.3967 0 11.2317 0.835071 11.2317 1.83716V3.08977Z" fill="black"/>
<path d="M11.8998 20H4.38415C3.38206 20 2.50524 19.1649 2.42173 18.1628L1.25262 3.13148L2.50523 3.04797L3.67434 18.0793C3.71609 18.4551 4.05012 18.7473 4.38415 18.7473H11.8998C12.2756 18.7473 12.6096 18.4133 12.6096 18.0793L13.7787 3.04797L15.0313 3.13148L13.8622 18.1628C13.7787 19.2066 12.9019 20 11.8998 20Z" fill="black"/>
</svg>
