<svg width="25" height="25" viewBox="0 0 25 25" fill="none" xmlns="http://www.w3.org/2000/svg">
<g id="refreshpageaction_114520 1" clip-path="url(#clip0_119_588)">
<g id="Group">
<g id="Group_2">
<g id="Group_3">
<g id="Group_4">
<path id="Vector" d="M23.0541 13.5752C22.7382 13.5752 22.4821 13.3191 22.4821 13.0032C22.4821 7.5439 18.0407 3.1025 12.5812 3.1025C10.4376 3.1025 8.39764 3.77593 6.68217 5.05042C6.42888 5.23921 6.0703 5.18608 5.88199 4.93233C5.69368 4.67879 5.74651 4.32024 6.00008 4.13189C7.91438 2.71002 10.19 1.95831 12.5813 1.95831C18.6713 1.95831 23.6263 6.9128 23.6263 13.0031C23.6262 13.3189 23.3701 13.5752 23.0541 13.5752Z" fill="black"/>
<path id="Vector_2" d="M10.2403 7.17544C10.1737 7.17544 10.1065 7.16376 10.0404 7.13904L5.32343 5.37895L6.36846 0.453553C6.4339 0.144418 6.73755 -0.0530905 7.04668 0.0126124C7.35582 0.0780609 7.55307 0.381705 7.48741 0.69084L6.64716 4.65174L10.4403 6.06728C10.7362 6.17753 10.8868 6.5071 10.7762 6.80314C10.6904 7.03334 10.4721 7.17544 10.2403 7.17544Z" fill="black"/>
</g>
<g id="Group_5">
<path id="Vector_3" d="M12.4189 23.0415C6.3286 23.0415 1.37372 18.0868 1.37372 11.9966C1.37372 11.6807 1.62977 11.4246 1.94577 11.4246C2.26178 11.4246 2.51783 11.6807 2.51783 11.9966C2.51783 17.4557 6.95949 21.8974 12.419 21.8974C14.5626 21.8974 16.6023 21.2239 18.3177 19.9496C18.5714 19.7613 18.9296 19.8139 19.118 20.0679C19.3063 20.3215 19.2535 20.6798 18.9999 20.8681C17.0858 22.2898 14.8099 23.0415 12.4189 23.0415Z" fill="black"/>
<path id="Vector_4" d="M18.0727 24.9999C18.0333 24.9999 17.9935 24.9956 17.9533 24.9871C17.6441 24.9217 17.4469 24.618 17.5126 24.3089L18.353 20.3478L14.5596 18.9323C14.2637 18.822 14.1132 18.4925 14.2237 18.1964C14.334 17.9003 14.663 17.7488 14.9596 17.8605L19.6767 19.6204L18.6317 24.5457C18.5747 24.8155 18.3372 24.9999 18.0727 24.9999Z" fill="black"/>
</g>
</g>
</g>
</g>
</g>
<defs>
<clipPath id="clip0_119_588">
<rect width="25" height="25" fill="white"/>
</clipPath>
</defs>
</svg>
